PathFileType	4	(X/Y/Z)	/Users/itak/Documents/Research/Walk-IL/dataset/trc/00461_00167.trc
DataRate	CameraRate	NumFrames	NumMarkers	Units	OrigDataRate	OrigDataStartFrame	OrigNumFrames
100.000000	100.000000	4	53	mm	100.000000	276	553
Frame#	Time	RPSI			LPSI			L3			STRN			T10			C7			CLAV			RBAK			LBAK			LSHO			LUPA			LAEL			LAOL			LWTS			LWPS			LFRA			LIFD			LHPS			LHTS			RSHO			RUPA			RAEL			RAOL			RWTS			RWPS			RFRA			RIFD			RHTS			RHPS			RBHD			LFHD			RFHD			LBHD			LHIP			RHIP			RASI			LASI			LKNE			LTHI			LANK			LTIP			LTOE			LMT1			LMT5			LHEE			RKNE			RTHI			RANK			RTIP			RTOE			RMT1			RMT5			RHEE			
		X1	Y1	Z1	X2	Y2	Z2	X3	Y3	Z3	X4	Y4	Z4	X5	Y5	Z5	X6	Y6	Z6	X7	Y7	Z7	X8	Y8	Z8	X9	Y9	Z9	X10	Y10	Z10	X11	Y11	Z11	X12	Y12	Z12	X13	Y13	Z13	X14	Y14	Z14	X15	Y15	Z15	X16	Y16	Z16	X17	Y17	Z17	X18	Y18	Z18	X19	Y19	Z19	X20	Y20	Z20	X21	Y21	Z21	X22	Y22	Z22	X23	Y23	Z23	X24	Y24	Z24	X25	Y25	Z25	X26	Y26	Z26	X27	Y27	Z27	X28	Y28	Z28	X29	Y29	Z29	X30	Y30	Z30	X31	Y31	Z31	X32	Y32	Z32	X33	Y33	Z33	X34	Y34	Z34	X35	Y35	Z35	X36	Y36	Z36	X37	Y37	Z37	X38	Y38	Z38	X39	Y39	Z39	X40	Y40	Z40	X41	Y41	Z41	X42	Y42	Z42	X43	Y43	Z43	X44	Y44	Z44	X45	Y45	Z45	X46	Y46	Z46	X47	Y47	Z47	X48	Y48	Z48	X49	Y49	Z49	X50	Y50	Z50	X51	Y51	Z51	X52	Y52	Z52	X53	Y53	Z53	

277	2.76	-432.924560546875	922.4638671875	-764.336181640625	-401.7888488769531	930.5252075195312	-903.5096435546875	-406.2421875	1031.37939453125	-817.1947631835938	-135.6969604492188	1235.062622070312	-762.5362548828125	-416.885986328125	1155.541381835938	-823.6358642578125	-357.2638549804688	1425.026245117188	-794.9907836914062	-173.3324890136719	1347.667358398438	-771.1213989257812	-436.807861328125	1300.9306640625	-719.5774536132812	-363.3031005859375	1378.442504882812	-899.7554321289062	-246.9984130859375	1405.65234375	-958.2072143554688	-233.9246368408203	1287.046997070312	-1057.758544921875	-223.8957366943359	1066.63427734375	-1076.624877929688	-318.1872863769531	1067.01318359375	-1032.920288085938	-209.7974395751953	845.4835205078125	-1025.193237304688	-235.4780578613281	845.9884643554688	-1095.173950195312	-218.9589385986328	976.9868774414062	-1085.522338867188	-280.6015014648438	686.2207641601562	-1040.509887695312	-259.8524475097656	768.1752319335938	-1098.684326171875	-227.4659881591797	754.6596069335938	-1035.522583007812	-328.2343139648438	1393.73974609375	-624.7958984375	-363.4288940429688	1331.628784179688	-557.0198974609375	-370.5149230957031	1047.876220703125	-495.9956970214844	-407.0414123535156	1026.04833984375	-549.07177734375	-241.6579895019531	856.2567138671875	-502.7840270996094	-321.0757141113281	833.8374633789062	-469.7373352050781	-364.41650390625	989.3988647460938	-484.3462524414062	-224.5479583740234	702.1051025390625	-484.5206298828125	-219.9654541015625	762.5364379882812	-477.1063842773438	-293.9140625	750.6996459960938	-458.4570007324219	-287.2883911132812	1621.6923828125	-681.2514038085938	-95.77074432373047	1618.571899414062	-760.0883178710938	-154.8484802246094	1612.294189453125	-643.5714721679688	-220.9670867919922	1637.441162109375	-845.6401977539062	-228.5093078613281	852.7191772460938	-991.8295288085938	-333.3460083007812	821.1423950195312	-604.9822998046875	-226.3930816650391	877.4138793945312	-645.27685546875	-161.3086395263672	895.4479370117188	-891.1904296875	-91.40577697753906	455.6170654296875	-964.3013305664062	-114.9606018066406	608.4860229492188	-977.7045288085938	-145.3519592285156	39.36019134521484	-1028.16015625	-85.04339599609375	302.9367980957031	-992.4266357421875	43.05399703979492	43.43889999389648	-873.011962890625	-38.16800689697266	51.62011337280273	-876.06640625	3.123224258422852	40.12968063354492	-983.4031372070312	-210.0416412353516	46.02230453491211	-984.5626831054688	-242.9599609375	447.402587890625	-624.552490234375	-265.4229125976562	694.46142578125	-596.54541015625	-579.7102661132812	179.1386566162109	-652.8386840820312	-334.9020080566406	336.1611022949219	-624.1430053710938	-439.8747253417969	40.01427459716797	-694.5841674804688	-484.4367370605469	67.13639831542969	-731.959228515625	-495.8156433105469	82.45853424072266	-627.583984375	-621.1846923828125	225.8068542480469	-702.8179321289062	
278	2.77	-426.697265625	923.4241333007812	-768.6127319335938	-393.2360229492188	932.7369384765625	-907.2297973632812	-398.7489624023438	1033.216674804688	-821.4130859375	-128.7929534912109	1235.975952148438	-761.3748168945312	-408.7256774902344	1157.45068359375	-827.8282470703125	-348.9707946777344	1426.7666015625	-797.9149169921875	-165.7626342773438	1348.753540039062	-770.4813842773438	-430.2545471191406	1302.829345703125	-724.2168579101562	-352.8723754882812	1380.43505859375	-902.8544311523438	-235.2283630371094	1407.477416992188	-958.7288818359375	-220.3474273681641	1289.601196289062	-1058.735229492188	-211.0747528076172	1068.913940429688	-1078.29345703125	-306.48974609375	1069.717163085938	-1037.371337890625	-198.3539276123047	848.0283203125	-1025.650634765625	-222.0548858642578	847.9595947265625	-1096.355102539062	-205.8804779052734	979.2090454101562	-1086.8330078125	-268.7416076660156	689.0086059570312	-1041.113159179688	-246.6351928710938	769.93017578125	-1099.695190429688	-215.91796875	757.109375	-1035.501342773438	-323.3314514160156	1395.352416992188	-627.2452392578125	-360.03564453125	1333.378662109375	-560.1942749023438	-369.1886596679688	1049.322509765625	-500.1376953125	-405.03125	1028.052734375	-553.8876953125	-242.3446350097656	856.1998291015625	-505.42236328125	-322.6449584960938	834.5826416015625	-473.9522705078125	-363.9878845214844	990.793701171875	-488.6155090332031	-227.6180572509766	701.6651000976562	-487.9437255859375	-222.3701019287109	761.9447021484375	-480.0719909667969	-296.7958984375	751.0365600585938	-462.7559814453125	-281.12353515625	1623.185424804688	-682.9747924804688	-88.24399566650391	1620.216186523438	-758.9124145507812	-149.1612396240234	1614.078491210938	-643.317626953125	-212.1114196777344	1638.695190429688	-846.4700927734375	-219.2857818603516	854.016357421875	-992.6785278320312	-328.8960876464844	822.1925048828125	-607.512939453125	-221.8044586181641	879.28173828125	-645.67236328125	-153.4595947265625	895.9668579101562	-890.8236694335938	-87.89247894287109	455.0617980957031	-963.9542236328125	-109.1390609741211	608.4679565429688	-977.1111450195312	-145.4189147949219	39.61727523803711	-1027.876831054688	-82.74581146240234	302.2820129394531	-992.0104370117188	42.97562408447266	43.14868927001953	-872.5555419921875	-38.20586395263672	51.2441291809082	-875.6709594726562	3.173102617263794	40.33169174194336	-983.1430053710938	-210.0885620117188	45.95939254760742	-984.325927734375	-228.8878173828125	451.116455078125	-622.9341430664062	-258.3156127929688	696.8023681640625	-596.7388305664062	-566.362060546875	187.6280975341797	-662.3547973632812	-321.2331848144531	341.1976928710938	-625.2616577148438	-428.3901062011719	40.30866622924805	-694.3982543945312	-470.5070495605469	70.60353851318359	-734.33984375	-485.9253234863281	89.24789428710938	-631.072021484375	-605.018310546875	233.6455535888672	-714.9138793945312	
279	2.78	-420.5209045410156	924.5525512695312	-772.7000122070312	-384.8249206542969	934.8765869140625	-910.72314453125	-391.3731079101562	1035.06689453125	-825.4329833984375	-122.0785293579102	1236.8515625	-760.0237426757812	-400.6508483886719	1159.383544921875	-831.8452758789062	-340.7474060058594	1428.484741210938	-800.5774536132812	-158.3809814453125	1349.794799804688	-769.6383666992188	-423.779296875	1304.699829101562	-728.6742553710938	-342.5917053222656	1382.438720703125	-905.6806640625	-223.6880035400391	1409.240478515625	-958.9639892578125	-206.9428558349609	1292.089233398438	-1059.381469726562	-198.2374725341797	1071.171508789062	-1079.874755859375	-294.7115478515625	1072.266479492188	-1041.789306640625	-186.5469360351562	850.6522216796875	-1026.159301757812	-208.3741607666016	849.930419921875	-1097.464233398438	-192.7227325439453	981.4049682617188	-1088.0673828125	-255.6702270507812	691.59521484375	-1041.61474609375	-232.7530822753906	771.6046142578125	-1100.603271484375	-203.5225524902344	759.66015625	-1035.533325195312	-318.5630493164062	1396.867309570312	-629.5048217773438	-356.7844543457031	1334.9990234375	-563.2382202148438	-367.9481506347656	1050.665649414062	-504.1469421386719	-403.1436767578125	1029.963989257812	-558.502197265625	-243.0560760498047	856.0980224609375	-508.2758483886719	-324.0718688964844	835.2745361328125	-478.1226501464844	-363.5722961425781	992.10693359375	-492.7604370117188	-230.6114807128906	701.2090454101562	-491.868896484375	-224.6873321533203	761.3231811523438	-483.4822387695312	-299.4874572753906	751.3206787109375	-467.224609375	-275.0270080566406	1624.689086914062	-684.5025024414062	-80.88487243652344	1621.851196289062	-757.573974609375	-143.5704498291016	1615.880004882812	-642.9027099609375	-203.3934631347656	1639.933349609375	-847.08642578125	-210.2416534423828	855.2534790039062	-993.2811889648438	-324.7306518554688	823.5083618164062	-609.8125610351562	-217.4507293701172	881.2609252929688	-645.8842163085938	-145.7715759277344	896.4857177734375	-890.2181396484375	-84.61782073974609	454.5309753417969	-963.5333251953125	-103.4838027954102	608.4871826171875	-976.3201293945312	-145.4823303222656	39.85805130004883	-1027.563720703125	-80.67156982421875	301.6708374023438	-991.59423828125	42.94267272949219	42.89192962646484	-872.133056640625	-38.22106552124023	50.85681533813477	-875.2841186523438	3.228720426559448	40.52201080322266	-982.8744506835938	-210.1177978515625	45.90115737915039	-984.0349731445312	-215.6909637451172	455.1446228027344	-621.1831665039062	-251.7992401123047	699.3614501953125	-596.7060546875	-552.0958251953125	194.4672698974609	-671.9893188476562	-307.88916015625	346.0993041992188	-626.4203491210938	-414.5542602539062	41.29835891723633	-694.727783203125	-454.3876037597656	74.2271728515625	-737.0956420898438	-474.1341552734375	95.55095672607422	-635.0628662109375	-588.395263671875	239.5068969726562	-726.850830078125	
280	2.79	-414.3710632324219	925.8479614257812	-776.507080078125	-376.5664978027344	936.906005859375	-913.921630859375	-384.1067199707031	1036.9267578125	-829.2021484375	-115.5293884277344	1237.716064453125	-758.5161743164062	-392.6498718261719	1161.328369140625	-835.6697998046875	-332.6077880859375	1430.173583984375	-802.9891357421875	-151.1868133544922	1350.808471679688	-768.6257934570312	-417.3790588378906	1306.54345703125	-732.9367065429688	-332.4854736328125	1384.427612304688	-908.2446899414062	-212.4164886474609	1410.929931640625	-958.948974609375	-193.7616424560547	1294.475341796875	-1059.702514648438	-185.36083984375	1073.391723632812	-1081.316284179688	-282.8259582519531	1074.634643554688	-1046.09423828125	-174.4088134765625	853.3016967773438	-1026.688110351562	-194.4411773681641	851.9091796875	-1098.499633789062	-179.4675445556641	983.5664672851562	-1089.188842773438	-241.4899139404297	693.9719848632812	-1042.106689453125	-218.2186584472656	773.2308349609375	-1101.450439453125	-190.3504180908203	762.2674560546875	-1035.6318359375	-313.9099731445312	1398.284912109375	-631.5850219726562	-353.64111328125	1336.48876953125	-566.155029296875	-366.8108825683594	1051.910888671875	-508.0393371582031	-401.3926086425781	1031.783325195312	-562.9392700195312	-243.7788238525391	855.9708862304688	-511.32080078125	-325.3624877929688	835.9144897460938	-482.23583984375	-363.1802673339844	993.336669921875	-496.7914123535156	-233.4769134521484	700.7659301757812	-496.2144470214844	-226.8858032226562	760.705810546875	-487.2743530273438	-301.9759521484375	751.5606689453125	-471.8167114257812	-268.9927978515625	1626.18896484375	-685.849365234375	-73.69416809082031	1623.468627929688	-756.06103515625	-138.0874633789062	1617.681396484375	-642.3165283203125	-194.8064880371094	1641.154541015625	-847.4872436523438	-201.4000549316406	856.42431640625	-993.657470703125	-320.7427978515625	825.0811157226562	-611.8472290039062	-213.2740783691406	883.3424682617188	-646.0093994140625	-138.2100219726562	897.0579833984375	-889.4522705078125	-81.56801605224609	454.0362243652344	-963.0978393554688	-98.02215576171875	608.5355834960938	-975.4114990234375	-145.5363006591797	40.06026458740234	-1027.2412109375	-78.79769134521484	301.123291015625	-991.2183227539062	42.95034408569336	42.66971206665039	-871.7615356445312	-38.22181701660156	50.48138809204102	-874.9262084960938	3.282852649688721	40.69214248657227	-982.6146850585938	-210.1361999511719	45.84309387207031	-983.7154541015625	-203.3368072509766	459.3766479492188	-619.3318481445312	-245.8211517333984	702.0991821289062	-596.481201171875	-536.9473876953125	199.4389495849609	-681.56689453125	-294.849853515625	350.7175903320312	-627.5866088867188	-398.4519653320312	42.85012054443359	-695.8978881835938	-436.2676696777344	77.79255676269531	-740.41259765625	-460.4439086914062	100.9276657104492	-639.674560546875	-571.3811645507812	243.3537750244141	-738.3836669921875	
